<?xml version="1.0" encoding="utf-8"?>
<!-- Generator: Adobe Illustrator 23.0.5, SVG Export Plug-In . SVG Version: 6.00 Build 0)  -->
<svg version="1.1" id="Layer_1" xmlns="http://www.w3.org/2000/svg" xmlns:xlink="http://www.w3.org/1999/xlink" x="0px" y="0px"
	 viewBox="0 0 900 788" style="enable-background:new 0 0 900 788;" xml:space="preserve">
<g>
	<path d="M387.85,458.88c6.5-3.77,10.95-9.22,13.51-16.25c0.44-1.2,0.22-1.89-0.64-2.79c-12.83-13.36-19.01-29.32-18.3-47.83
		c1.15-29.89,23.94-55.55,53.38-60.27c29.55-4.74,57.55,10.44,69.64,37.76c13.93,31.49-0.57,69.6-31.97,83.74
		c-17.69,7.97-35.5,7.99-53.31,0.23c-0.49-0.21-1.24-0.31-1.67-0.08c-5.71,3.11-11.92,4.41-18.28,5.1
		c-4.06,0.44-8.16,0.57-12.25,0.84C387.92,459.18,387.88,459.03,387.85,458.88z M476.03,380.13c0-3.34,0-6.55,0-9.69
		c-19.77,0-39.42,0-59.04,0c0,3.29,0,6.46,0,9.69C436.7,380.13,456.32,380.13,476.03,380.13z M476.06,399.87c0-3.35,0-6.51,0-9.71
		c-19.74,0-39.39,0-59.04,0c0,3.3,0,6.5,0,9.71C436.75,399.87,456.36,399.87,476.06,399.87z M476.08,409.92
		c-19.77,0-39.42,0-59.05,0c0,3.31,0,6.51,0,9.69c19.74,0,39.36,0,59.05,0C476.08,416.37,476.08,413.2,476.08,409.92z"/>
</g>
</svg>
