<svg width="583" height="612" viewBox="0 0 583 612" fill="none" xmlns="http://www.w3.org/2000/svg">
<rect width="583" height="612" fill="white"/>
<g filter="url(#filter0_d)">
<circle cx="359" cy="184" r="50" fill="#2F7FB9" fill-opacity="0.75"/>
<path d="M439 346C450.046 346 459.202 336.958 457.007 326.132C453.131 307.013 443.711 289.289 429.711 275.289C410.957 256.536 385.522 246 359 246C332.478 246 307.043 256.536 288.289 275.289C274.289 289.289 264.869 307.013 260.993 326.132C258.798 336.958 267.954 346 279 346L359 346H439Z" fill="#2F7FB9" fill-opacity="0.75"/>
</g>
<g filter="url(#filter1_d)">
<circle cx="225" cy="184" r="50" fill="#2F7FB9" fill-opacity="0.75"/>
<path d="M305 346C316.046 346 325.202 336.958 323.007 326.132C319.131 307.013 309.711 289.289 295.711 275.289C276.957 256.536 251.522 246 225 246C198.478 246 173.043 256.536 154.289 275.289C140.289 289.289 130.869 307.013 126.993 326.132C124.798 336.958 133.954 346 145 346L225 346H305Z" fill="#2F7FB9" fill-opacity="0.75"/>
</g>
<circle cx="437.5" cy="318.5" r="37.5" fill="white"/>
<g filter="url(#filter2_d)">
<circle cx="437" cy="319" r="24" stroke="#2F7FB9" stroke-width="12"/>
</g>
<g filter="url(#filter3_d)">
<rect x="444.922" y="338.408" width="12" height="33.2814" rx="6" transform="rotate(-45 444.922 338.408)" fill="#2F7FB9"/>
</g>
<g filter="url(#filter4_d)">
<circle cx="291" cy="200" r="50" fill="#2F7FB9"/>
<path d="M371 362C382.046 362 391.202 352.958 389.007 342.132C385.131 323.013 375.711 305.289 361.711 291.289C342.957 272.536 317.522 262 291 262C264.478 262 239.043 272.536 220.289 291.289C206.289 305.289 196.869 323.013 192.993 342.132C190.798 352.958 199.954 362 211 362L291 362H371Z" fill="#2F7FB9"/>
</g>
<defs>
<filter id="filter0_d" x="256.666" y="134" width="204.669" height="220" filterUnits="userSpaceOnUse" color-interpolation-filters="sRGB">
<feFlood flood-opacity="0" result="BackgroundImageFix"/>
<feColorMatrix in="SourceAlpha" type="matrix" values="0 0 0 0 0 0 0 0 0 0 0 0 0 0 0 0 0 0 127 0"/>
<feOffset dy="4"/>
<feGaussianBlur stdDeviation="2"/>
<feColorMatrix type="matrix" values="0 0 0 0 0 0 0 0 0 0 0 0 0 0 0 0 0 0 0.25 0"/>
<feBlend mode="normal" in2="BackgroundImageFix" result="effect1_dropShadow"/>
<feBlend mode="normal" in="SourceGraphic" in2="effect1_dropShadow" result="shape"/>
</filter>
<filter id="filter1_d" x="122.666" y="134" width="204.669" height="220" filterUnits="userSpaceOnUse" color-interpolation-filters="sRGB">
<feFlood flood-opacity="0" result="BackgroundImageFix"/>
<feColorMatrix in="SourceAlpha" type="matrix" values="0 0 0 0 0 0 0 0 0 0 0 0 0 0 0 0 0 0 127 0"/>
<feOffset dy="4"/>
<feGaussianBlur stdDeviation="2"/>
<feColorMatrix type="matrix" values="0 0 0 0 0 0 0 0 0 0 0 0 0 0 0 0 0 0 0.25 0"/>
<feBlend mode="normal" in2="BackgroundImageFix" result="effect1_dropShadow"/>
<feBlend mode="normal" in="SourceGraphic" in2="effect1_dropShadow" result="shape"/>
</filter>
<filter id="filter2_d" x="403" y="289" width="68" height="68" filterUnits="userSpaceOnUse" color-interpolation-filters="sRGB">
<feFlood flood-opacity="0" result="BackgroundImageFix"/>
<feColorMatrix in="SourceAlpha" type="matrix" values="0 0 0 0 0 0 0 0 0 0 0 0 0 0 0 0 0 0 127 0"/>
<feOffset dy="4"/>
<feGaussianBlur stdDeviation="2"/>
<feColorMatrix type="matrix" values="0 0 0 0 0 0 0 0 0 0 0 0 0 0 0 0 0 0 0.25 0"/>
<feBlend mode="normal" in2="BackgroundImageFix" result="effect1_dropShadow"/>
<feBlend mode="normal" in="SourceGraphic" in2="effect1_dropShadow" result="shape"/>
</filter>
<filter id="filter3_d" x="443.408" y="332.408" width="35.0482" height="35.0482" filterUnits="userSpaceOnUse" color-interpolation-filters="sRGB">
<feFlood flood-opacity="0" result="BackgroundImageFix"/>
<feColorMatrix in="SourceAlpha" type="matrix" values="0 0 0 0 0 0 0 0 0 0 0 0 0 0 0 0 0 0 127 0"/>
<feOffset dy="4"/>
<feGaussianBlur stdDeviation="2"/>
<feColorMatrix type="matrix" values="0 0 0 0 0 0 0 0 0 0 0 0 0 0 0 0 0 0 0.25 0"/>
<feBlend mode="normal" in2="BackgroundImageFix" result="effect1_dropShadow"/>
<feBlend mode="normal" in="SourceGraphic" in2="effect1_dropShadow" result="shape"/>
</filter>
<filter id="filter4_d" x="188.666" y="150" width="204.669" height="220" filterUnits="userSpaceOnUse" color-interpolation-filters="sRGB">
<feFlood flood-opacity="0" result="BackgroundImageFix"/>
<feColorMatrix in="SourceAlpha" type="matrix" values="0 0 0 0 0 0 0 0 0 0 0 0 0 0 0 0 0 0 127 0"/>
<feOffset dy="4"/>
<feGaussianBlur stdDeviation="2"/>
<feColorMatrix type="matrix" values="0 0 0 0 0 0 0 0 0 0 0 0 0 0 0 0 0 0 0.25 0"/>
<feBlend mode="normal" in2="BackgroundImageFix" result="effect1_dropShadow"/>
<feBlend mode="normal" in="SourceGraphic" in2="effect1_dropShadow" result="shape"/>
</filter>
</defs>
</svg>
