<svg width="111" height="113" viewBox="0 0 111 113" fill="none" xmlns="http://www.w3.org/2000/svg">
<path d="M66.5475 54.0091C92.116 54.0091 96.3775 90.1835 95.558 97.7732" stroke="#18A6C6" stroke-width="3"/>
<path d="M2 97.7732C2 59.3233 25.7469 52.915 30.7293 54.1474" stroke="#1692AE" stroke-width="3"/>
<line x1="2.37311" y1="96.2733" x2="95.6499" y2="96.2733" stroke="#18A6C6" stroke-width="3"/>
<path d="M31.9765 51.6243C59.6021 55.8431 52.9221 54.823 52.9221 54.823L64.6215 56.6096C64.6215 56.6096 74.3793 49.7498 48.299 54.117C22.2186 58.4841 31.9765 51.6243 31.9765 51.6243Z" stroke="#0C0C0C" stroke-width="5"/>
<path d="M75.2167 23.9032C75.2167 36.0461 63.4423 46.3064 48.3583 46.3064C33.2744 46.3064 21.5 36.0461 21.5 23.9032C21.5 11.7603 33.2744 1.5 48.3583 1.5C63.4423 1.5 75.2167 11.7603 75.2167 23.9032Z" fill="#18A6C6" stroke="#18A6C6" stroke-width="3"/>
<path d="M81.6088 109.13L82.1101 100.212L90.8093 106.915L81.6088 109.13Z" fill="black"/>
<rect width="31.186" height="9.9793" transform="matrix(0.636869 -0.770972 0.807537 0.589817 82.8018 99.6776)" fill="#18A6C6"/>
<rect width="8.98789" height="9.9793" transform="matrix(0.636869 -0.770972 0.807537 0.589817 97.2172 82.5634)" fill="black"/>
</svg>
