<?xml version="1.0" encoding="utf-8"?>
<!-- Generator: Adobe Illustrator 23.0.5, SVG Export Plug-In . SVG Version: 6.00 Build 0)  -->
<svg version="1.1" id="Layer_1" xmlns="http://www.w3.org/2000/svg" xmlns:xlink="http://www.w3.org/1999/xlink" x="0px" y="0px"
	 viewBox="0 0 900 788" style="enable-background:new 0 0 900 788;" xml:space="preserve">
<g>
	<path d="M451.04,461.71c-20.56,0-41.12,0-61.68,0c-4.24,0-5.91-1.69-5.89-5.93c0.13-24.15,15.91-47.52,38.21-56.63
		c1.13-0.46,1.86-0.33,2.84,0.43c15.49,12.03,37.22,12.06,52.83,0.08c1.02-0.78,1.78-0.99,3.01-0.48
		c22.48,9.35,38.12,32.66,38.12,56.89c0,3.84-1.75,5.63-5.58,5.63C492.29,461.71,471.66,461.7,451.04,461.71z"/>
	<path d="M450.27,403.81c-21.45-0.03-38.74-17.31-38.71-38.69c0.03-21.33,17.42-38.49,38.95-38.44
		c21.02,0.05,38.33,17.44,38.3,38.48C488.79,386.5,471.49,403.84,450.27,403.81z"/>
</g>
</svg>
